<svg width="832" height="120" viewBox="0 0 832 120" fill="none" xmlns="http://www.w3.org/2000/svg">
<g clip-path="url(#clip0_852_13542)">
<path opacity="0.6" d="M37.7448 21.4805C40.7228 21.1874 43.7272 21.6327 46.4919 22.7771C49.2565 23.9214 51.6961 25.7295 53.5945 28.0411C55.4928 30.3527 56.7914 33.0964 57.3752 36.0294C57.959 38.9623 57.81 41.9938 56.9413 44.8554C56.0818 47.687 54.5439 50.2658 52.4616 52.3682L52.3948 52.4348C52.393 52.4366 52.393 52.4396 52.3948 52.4414C52.3966 52.4432 52.3966 52.4461 52.3948 52.4479C50.4686 54.3822 49.2781 57.0487 49.2781 59.9931C49.2781 65.9006 54.0704 70.6895 59.9819 70.6895C63.0623 70.6895 65.8387 69.3893 67.7916 67.308C69.8589 65.3239 72.3675 63.8547 75.1137 63.0222C77.9773 62.1541 81.0109 62.0052 83.9458 62.5886C86.8807 63.172 89.6264 64.4697 91.9396 66.3668C94.2528 68.2638 96.0621 70.7017 97.2072 73.4644C98.3524 76.2272 98.798 79.2295 98.5047 82.2055C98.2114 85.1815 97.1882 88.0392 95.5257 90.5256C93.8632 93.012 91.6127 95.0503 88.9736 96.46C86.3345 97.8696 83.3883 98.6071 80.3959 98.6071H66.6662C65.275 98.6071 64.1472 99.7382 64.1472 101.133V117.474C64.1472 118.869 65.275 120 66.6662 120H81.2684C81.2711 120 81.2733 119.998 81.2733 119.995C81.2733 119.992 81.2754 119.99 81.2781 119.99C87.4869 119.852 93.5808 118.256 99.0651 115.327C104.809 112.259 109.707 107.822 113.325 102.411C116.944 96.9993 119.171 90.7795 119.809 84.3024C120.448 77.8252 119.478 71.2908 116.985 65.2777C114.493 59.2647 110.555 53.9587 105.52 49.8298C100.486 45.7009 94.51 42.8765 88.1222 41.6067C86.0308 41.191 83.9164 40.9462 81.7994 40.8711C80.3447 40.8196 79.1594 39.6303 79.1075 38.1714C79.0323 36.0569 78.7873 33.9448 78.3715 31.8558C77.1009 25.4724 74.2745 19.5007 70.1428 14.4696C66.011 9.43847 60.7014 5.5033 54.6842 3.01262C48.667 0.521943 42.1281 -0.447356 35.6465 0.190583C29.1649 0.828522 22.9408 3.05401 17.5255 6.66991C12.1102 10.2858 7.67083 15.1805 4.60066 20.9205C1.92844 25.9164 0.365255 31.4184 0.00490256 37.0522C-0.0841572 38.4446 1.05207 39.5769 2.44332 39.5769H18.8128C20.2041 39.5769 21.3139 38.4404 21.5072 37.0587C21.8027 34.947 22.4685 32.897 23.4805 31.005C24.8911 28.3677 26.9308 26.1188 29.4189 24.4575C31.9071 22.7961 34.7668 21.7736 37.7448 21.4805Z" fill="#1A1A1A"/>
<path d="M19.1881 50C20.6133 50 21.7687 51.1536 21.7687 52.5767V95.5483C21.7687 96.9714 22.9241 98.125 24.3494 98.125H50.7527C52.1779 98.125 53.3333 99.2786 53.3333 100.702V117.423C53.3333 118.846 52.1779 120 50.7527 120H12.043C11.8586 120 11.6752 119.996 11.4928 119.988C11.3188 119.996 11.1438 120 10.9677 120C4.91043 120 0 115.097 0 109.049C0 108.873 0.00414635 108.699 0.0123465 108.525C0.00414487 108.343 0 108.16 0 107.975V52.5767C0 51.1536 1.15539 50 2.58065 50H19.1881Z" fill="#1A1A1A"/>
</g>
<path d="M175.864 64V1.024H183.736V57.184H214.936V64H175.864ZM225.746 64V1.024H264.723V7.744H233.81V27.52H259.923V34.336H233.81V57.184H265.683V64H225.746ZM293.677 64L273.613 1.024H282.061L292.237 35.008C293.389 38.72 294.381 42.208 295.213 45.472C296.109 48.672 297.133 52.128 298.285 55.84H298.669C299.885 52.128 300.909 48.672 301.741 45.472C302.637 42.208 303.629 38.72 304.717 35.008L314.797 1.024H322.957L302.989 64H293.677ZM332.328 64V57.184H347.976V7.744H332.328V1.024H371.688V7.744H356.04V57.184H371.688V64H332.328ZM383.842 64V1.024H392.674L412.834 40.576L418.882 53.632H419.074C418.946 50.496 418.722 47.232 418.402 43.84C418.146 40.384 418.018 36.992 418.018 33.664V1.024H425.698V64H416.866L396.706 24.448L390.658 11.392H390.466C390.594 14.592 390.786 17.856 391.042 21.184C391.362 24.512 391.522 27.808 391.522 31.072V64H383.842ZM517.687 65.152C513.527 65.152 509.335 64.416 505.111 62.944C500.951 61.408 497.143 59.136 493.687 56.128L502.423 45.664C504.855 47.52 507.447 49.024 510.199 50.176C513.015 51.328 515.863 51.904 518.743 51.904C521.495 51.904 523.479 51.488 524.695 50.656C525.975 49.76 526.615 48.672 526.615 47.392C526.615 46.048 526.231 44.992 525.463 44.224C524.759 43.392 523.703 42.688 522.295 42.112C520.887 41.472 519.223 40.768 517.303 40L509.335 36.64C506.967 35.744 504.759 34.528 502.711 32.992C500.727 31.456 499.127 29.568 497.911 27.328C496.695 25.024 496.087 22.368 496.087 19.36C496.087 15.84 497.047 12.672 498.967 9.856C500.951 6.976 503.703 4.672 507.223 2.944C510.743 1.216 514.839 0.351995 519.511 0.351995C523.223 0.351995 526.903 1.056 530.551 2.464C534.263 3.808 537.591 5.856 540.535 8.608L532.855 18.304C530.615 16.768 528.439 15.616 526.327 14.848C524.215 14.016 521.655 13.6 518.647 13.6C516.599 13.6 514.903 14.016 513.559 14.848C512.279 15.616 511.639 16.832 511.639 18.496C511.639 19.584 512.023 20.512 512.791 21.28C513.623 21.984 514.775 22.656 516.247 23.296C517.783 23.872 519.575 24.544 521.623 25.312L529.015 28.384C531.831 29.408 534.199 30.72 536.119 32.32C538.103 33.856 539.607 35.712 540.631 37.888C541.719 40 542.263 42.528 542.263 45.472C542.263 48.992 541.303 52.256 539.383 55.264C537.527 58.208 534.775 60.608 531.127 62.464C527.479 64.256 522.999 65.152 517.687 65.152ZM545.202 64L564.402 1.504H582.834L602.034 64H585.81L578.226 32.992C577.522 29.92 576.722 26.624 575.826 23.104C574.994 19.584 574.194 16.224 573.426 13.024H573.042C572.402 16.224 571.666 19.584 570.834 23.104C570.066 26.624 569.298 29.92 568.53 32.992L560.946 64H545.202ZM558.45 49.888V38.08H588.594V49.888H558.45ZM610.732 64V1.504H628.396C634.412 1.504 639.66 2.592 644.14 4.768C648.684 6.88 652.236 10.208 654.796 14.752C657.356 19.296 658.636 25.216 658.636 32.512C658.636 39.744 657.356 45.696 654.796 50.368C652.3 55.04 648.844 58.496 644.428 60.736C640.012 62.912 634.956 64 629.26 64H610.732ZM626.092 51.712H627.532C630.54 51.712 633.196 51.136 635.5 49.984C637.804 48.768 639.596 46.784 640.876 44.032C642.22 41.28 642.892 37.44 642.892 32.512C642.892 27.584 642.22 23.776 640.876 21.088C639.596 18.4 637.804 16.512 635.5 15.424C633.196 14.336 630.54 13.792 627.532 13.792H626.092V51.712ZM688.455 65.152C684.295 65.152 680.103 64.416 675.879 62.944C671.719 61.408 667.911 59.136 664.455 56.128L673.191 45.664C675.623 47.52 678.215 49.024 680.967 50.176C683.783 51.328 686.631 51.904 689.511 51.904C692.263 51.904 694.247 51.488 695.463 50.656C696.743 49.76 697.383 48.672 697.383 47.392C697.383 46.048 696.999 44.992 696.231 44.224C695.527 43.392 694.471 42.688 693.063 42.112C691.655 41.472 689.991 40.768 688.071 40L680.103 36.64C677.735 35.744 675.527 34.528 673.479 32.992C671.495 31.456 669.895 29.568 668.679 27.328C667.463 25.024 666.855 22.368 666.855 19.36C666.855 15.84 667.815 12.672 669.735 9.856C671.719 6.976 674.471 4.672 677.991 2.944C681.511 1.216 685.607 0.351995 690.279 0.351995C693.991 0.351995 697.671 1.056 701.319 2.464C705.031 3.808 708.359 5.856 711.303 8.608L703.623 18.304C701.383 16.768 699.207 15.616 697.095 14.848C694.983 14.016 692.423 13.6 689.415 13.6C687.367 13.6 685.671 14.016 684.327 14.848C683.047 15.616 682.407 16.832 682.407 18.496C682.407 19.584 682.791 20.512 683.559 21.28C684.391 21.984 685.543 22.656 687.015 23.296C688.551 23.872 690.343 24.544 692.391 25.312L699.783 28.384C702.599 29.408 704.967 30.72 706.887 32.32C708.871 33.856 710.375 35.712 711.399 37.888C712.487 40 713.031 42.528 713.031 45.472C713.031 48.992 712.071 52.256 710.151 55.264C708.295 58.208 705.543 60.608 701.895 62.464C698.247 64.256 693.767 65.152 688.455 65.152ZM715.969 64L735.169 1.504H753.601L772.801 64H756.577L748.993 32.992C748.289 29.92 747.489 26.624 746.593 23.104C745.761 19.584 744.961 16.224 744.193 13.024H743.809C743.169 16.224 742.433 19.584 741.601 23.104C740.833 26.624 740.065 29.92 739.297 32.992L731.713 64H715.969ZM729.217 49.888V38.08H759.361V49.888H729.217ZM781.5 64V1.504H799.164C805.18 1.504 810.428 2.592 814.908 4.768C819.452 6.88 823.004 10.208 825.564 14.752C828.124 19.296 829.404 25.216 829.404 32.512C829.404 39.744 828.124 45.696 825.564 50.368C823.068 55.04 819.612 58.496 815.196 60.736C810.78 62.912 805.724 64 800.028 64H781.5ZM796.86 51.712H798.3C801.308 51.712 803.964 51.136 806.268 49.984C808.572 48.768 810.364 46.784 811.644 44.032C812.988 41.28 813.66 37.44 813.66 32.512C813.66 27.584 812.988 23.776 811.644 21.088C810.364 18.4 808.572 16.512 806.268 15.424C803.964 14.336 801.308 13.792 798.3 13.792H796.86V51.712Z" fill="#1A1A1A"/>
<path d="M441.693 34.144V30.496H481.053V34.144H441.693Z" fill="#1A1A1A" fill-opacity="0.4"/>
<path d="M181.008 119.632C179.536 118.288 178.384 116.624 177.552 114.64C176.72 112.656 176.304 110.491 176.304 108.144C176.304 105.584 176.72 103.216 177.552 101.04C178.405 98.864 179.611 96.8907 181.168 95.12C182.747 93.3493 184.613 91.8133 186.768 90.512L187.92 92.016C184.635 94.1707 182.245 96.6027 180.752 99.312C179.259 102 178.512 104.923 178.512 108.08C178.512 110.107 178.853 111.984 179.536 113.712C180.24 115.44 181.285 116.976 182.672 118.32L181.008 119.632ZM200.868 114.384C199.673 114.384 198.681 114.043 197.892 113.36C197.102 112.656 196.708 111.621 196.708 110.256C196.708 109.979 196.718 109.712 196.74 109.456C196.782 109.179 196.846 108.869 196.932 108.528L200.164 93.2H194.98L195.396 91.216H202.98L199.332 108.624C199.289 108.859 199.246 109.093 199.204 109.328C199.182 109.563 199.172 109.797 199.172 110.032C199.172 110.821 199.385 111.408 199.812 111.792C200.238 112.155 200.814 112.336 201.54 112.336C202.052 112.336 202.542 112.261 203.012 112.112C203.502 111.963 204.025 111.749 204.58 111.472L205.188 113.36C204.505 113.701 203.801 113.957 203.076 114.128C202.372 114.299 201.636 114.384 200.868 114.384ZM216.759 114.384C215.372 114.384 214.348 114.032 213.687 113.328C213.047 112.603 212.727 111.664 212.727 110.512C212.727 110.043 212.748 109.605 212.791 109.2C212.855 108.795 212.93 108.379 213.015 107.952L214.935 98.448H217.367L215.511 107.696C215.447 108.08 215.383 108.453 215.319 108.816C215.255 109.157 215.223 109.509 215.223 109.872C215.223 110.64 215.436 111.237 215.863 111.664C216.29 112.069 216.898 112.272 217.687 112.272C218.732 112.272 219.788 111.941 220.855 111.28C221.922 110.597 222.978 109.669 224.023 108.496L226.039 98.448H228.503L225.399 114H223.383L223.799 110.832H223.671C223.031 111.451 222.348 112.037 221.623 112.592C220.919 113.125 220.162 113.563 219.351 113.904C218.54 114.224 217.676 114.384 216.759 114.384ZM232.555 114L237.099 91.216H239.563L237.867 99.6L237.355 101.552H237.483C238.123 100.933 238.795 100.357 239.499 99.824C240.224 99.2907 240.981 98.864 241.771 98.544C242.581 98.224 243.445 98.064 244.363 98.064C245.728 98.064 246.731 98.416 247.371 99.12C248.032 99.824 248.363 100.763 248.363 101.936C248.363 102.384 248.331 102.821 248.267 103.248C248.224 103.653 248.16 104.069 248.075 104.496L246.155 114H243.691L245.547 104.752C245.653 104.347 245.728 103.973 245.771 103.632C245.813 103.269 245.835 102.917 245.835 102.576C245.835 101.808 245.621 101.221 245.195 100.816C244.789 100.389 244.181 100.176 243.371 100.176C242.325 100.176 241.269 100.507 240.203 101.168C239.136 101.829 238.069 102.757 237.003 103.952L234.987 114H232.555ZM278.642 114L275.122 98.448H277.554L279.506 107.504C279.676 108.251 279.826 109.019 279.954 109.808C280.103 110.576 280.252 111.333 280.402 112.08H280.53C280.892 111.333 281.298 110.576 281.746 109.808C282.194 109.04 282.652 108.261 283.122 107.472L288.466 98.448H290.962L281.522 114H278.642ZM303.909 114.384C302.672 114.384 301.658 114.053 300.869 113.392C300.101 112.731 299.717 111.76 299.717 110.48C299.717 110.224 299.738 109.957 299.781 109.68C299.824 109.381 299.888 109.083 299.973 108.784L301.829 100.432H296.133L296.549 98.448H304.677L302.341 109.008C302.32 109.2 302.288 109.381 302.245 109.552C302.224 109.701 302.213 109.861 302.213 110.032C302.213 110.843 302.437 111.429 302.885 111.792C303.333 112.155 303.909 112.336 304.613 112.336C305.104 112.336 305.584 112.261 306.053 112.112C306.522 111.963 307.034 111.76 307.589 111.504L308.165 113.36C307.504 113.659 306.842 113.904 306.181 114.096C305.52 114.288 304.762 114.384 303.909 114.384ZM303.749 95.152C303.258 95.152 302.832 95.0027 302.469 94.704C302.106 94.4053 301.925 93.9893 301.925 93.456C301.925 93.0507 302.021 92.6773 302.213 92.336C302.426 91.9947 302.704 91.728 303.045 91.536C303.386 91.344 303.749 91.248 304.133 91.248C304.709 91.248 305.157 91.3973 305.477 91.696C305.818 91.9947 305.989 92.4107 305.989 92.944C305.989 93.5627 305.765 94.0853 305.317 94.512C304.89 94.9387 304.368 95.152 303.749 95.152ZM314.425 114L317.529 98.448H319.513L319.129 101.616H319.257C319.875 100.997 320.547 100.421 321.273 99.888C321.998 99.3333 322.766 98.896 323.577 98.576C324.409 98.2347 325.294 98.064 326.233 98.064C327.598 98.064 328.601 98.416 329.241 99.12C329.902 99.824 330.233 100.763 330.233 101.936C330.233 102.384 330.201 102.821 330.137 103.248C330.094 103.653 330.03 104.069 329.945 104.496L328.025 114H325.561L327.417 104.752C327.523 104.347 327.598 103.973 327.641 103.632C327.683 103.269 327.705 102.917 327.705 102.576C327.705 101.808 327.491 101.221 327.065 100.816C326.659 100.389 326.051 100.176 325.241 100.176C324.195 100.176 323.139 100.507 322.073 101.168C321.006 101.829 319.939 102.757 318.873 103.952L316.857 114H314.425ZM336.076 119.92L334.892 118.416C338.22 116.261 340.609 113.84 342.06 111.152C343.511 108.443 344.236 105.52 344.236 102.384C344.236 100.315 343.895 98.4267 343.212 96.72C342.551 94.992 341.516 93.4453 340.108 92.08L341.676 90.832C343.148 92.176 344.311 93.84 345.164 95.824C346.017 97.808 346.444 99.9733 346.444 102.32C346.444 106.139 345.527 109.541 343.692 112.528C341.857 115.515 339.319 117.979 336.076 119.92Z" fill="#1A1A1A"/>
<path d="M260.35 110.256C259.262 110.256 258.334 109.904 257.566 109.2C256.798 108.496 256.414 107.568 256.414 106.416C256.414 105.307 256.67 104.347 257.182 103.536C257.715 102.725 258.409 102.096 259.262 101.648C260.137 101.2 261.065 100.976 262.046 100.976C263.155 100.976 264.083 101.328 264.83 102.032C265.577 102.715 265.95 103.643 265.95 104.816C265.95 105.925 265.683 106.885 265.15 107.696C264.638 108.507 263.955 109.136 263.102 109.584C262.27 110.032 261.353 110.256 260.35 110.256Z" fill="#1A1A1A" fill-opacity="0.4"/>
<path d="M498.08 119.632C496.608 118.288 495.456 116.624 494.624 114.64C493.792 112.656 493.376 110.491 493.376 108.144C493.376 105.584 493.792 103.216 494.624 101.04C495.478 98.864 496.683 96.8907 498.24 95.12C499.819 93.3493 501.686 91.8133 503.84 90.512L504.992 92.016C501.707 94.1707 499.318 96.6027 497.824 99.312C496.331 102 495.584 104.923 495.584 108.08C495.584 110.107 495.926 111.984 496.608 113.712C497.312 115.44 498.358 116.976 499.744 118.32L498.08 119.632ZM516.18 114.384C515.284 114.384 514.399 114.267 513.524 114.032C512.671 113.797 511.871 113.467 511.124 113.04C510.399 112.613 509.791 112.112 509.3 111.536L510.708 109.968C511.476 110.821 512.372 111.451 513.396 111.856C514.441 112.261 515.519 112.464 516.628 112.464C517.716 112.464 518.612 112.272 519.316 111.888C520.041 111.483 520.404 110.853 520.404 110C520.404 109.488 520.244 109.072 519.924 108.752C519.604 108.411 519.135 108.112 518.516 107.856C517.919 107.6 517.183 107.323 516.308 107.024C514.687 106.491 513.503 105.872 512.756 105.168C512.009 104.443 511.636 103.547 511.636 102.48C511.636 101.477 511.903 100.656 512.436 100.016C512.969 99.3547 513.673 98.864 514.548 98.544C515.423 98.224 516.393 98.064 517.46 98.064C518.953 98.064 520.244 98.32 521.332 98.832C522.42 99.344 523.295 99.9307 523.956 100.592L522.58 102.096C521.94 101.541 521.172 101.051 520.276 100.624C519.401 100.197 518.377 99.984 517.204 99.984C516.201 99.984 515.412 100.187 514.836 100.592C514.26 100.976 513.972 101.509 513.972 102.192C513.972 102.917 514.303 103.483 514.964 103.888C515.625 104.293 516.575 104.709 517.812 105.136C518.772 105.456 519.625 105.808 520.372 106.192C521.119 106.576 521.695 107.045 522.1 107.6C522.527 108.155 522.74 108.848 522.74 109.68C522.74 110.789 522.441 111.696 521.844 112.4C521.268 113.083 520.479 113.584 519.476 113.904C518.495 114.224 517.396 114.384 516.18 114.384ZM535.015 114.384C533.394 114.384 532.093 113.883 531.111 112.88C530.151 111.856 529.671 110.373 529.671 108.432C529.671 107.024 529.885 105.701 530.311 104.464C530.759 103.227 531.378 102.128 532.167 101.168C532.957 100.208 533.863 99.4507 534.887 98.896C535.911 98.3413 537.021 98.064 538.215 98.064C539.325 98.064 540.285 98.2773 541.095 98.704C541.927 99.1307 542.557 99.696 542.983 100.4H543.111L543.719 98.448H545.703L542.599 114H540.583L540.839 111.632H540.711C539.901 112.464 538.994 113.136 537.991 113.648C537.01 114.139 536.018 114.384 535.015 114.384ZM535.751 112.336C536.605 112.336 537.49 112.08 538.407 111.568C539.346 111.056 540.242 110.309 541.095 109.328L542.535 102.416C542.002 101.584 541.383 100.997 540.679 100.656C539.975 100.293 539.261 100.112 538.535 100.112C537.661 100.112 536.829 100.336 536.039 100.784C535.271 101.211 534.599 101.797 534.023 102.544C533.447 103.269 532.999 104.112 532.679 105.072C532.359 106.032 532.199 107.024 532.199 108.048C532.199 109.499 532.519 110.576 533.159 111.28C533.821 111.984 534.685 112.336 535.751 112.336ZM555.451 114.384C553.851 114.384 552.56 113.883 551.579 112.88C550.619 111.856 550.139 110.373 550.139 108.432C550.139 107.024 550.352 105.701 550.779 104.464C551.227 103.227 551.846 102.128 552.635 101.168C553.424 100.208 554.331 99.4507 555.355 98.896C556.379 98.3413 557.488 98.064 558.683 98.064C559.792 98.064 560.742 98.2773 561.531 98.704C562.32 99.1093 562.939 99.6533 563.387 100.336H563.483L563.995 97.296L565.211 91.216H567.675L563.067 114H561.051L561.307 111.632H561.179C560.368 112.464 559.462 113.136 558.459 113.648C557.478 114.139 556.475 114.384 555.451 114.384ZM556.219 112.336C557.072 112.336 557.958 112.08 558.875 111.568C559.814 111.056 560.71 110.309 561.563 109.328L562.971 102.416C562.459 101.584 561.851 100.997 561.147 100.656C560.443 100.293 559.728 100.112 559.003 100.112C558.128 100.112 557.296 100.336 556.507 100.784C555.739 101.211 555.067 101.797 554.491 102.544C553.915 103.269 553.467 104.112 553.147 105.072C552.827 106.032 552.667 107.024 552.667 108.048C552.667 109.499 552.987 110.576 553.627 111.28C554.288 111.984 555.152 112.336 556.219 112.336ZM598.05 114.384C597.154 114.384 596.269 114.267 595.394 114.032C594.541 113.797 593.741 113.467 592.994 113.04C592.269 112.613 591.661 112.112 591.17 111.536L592.578 109.968C593.346 110.821 594.242 111.451 595.266 111.856C596.311 112.261 597.389 112.464 598.498 112.464C599.586 112.464 600.482 112.272 601.186 111.888C601.911 111.483 602.274 110.853 602.274 110C602.274 109.488 602.114 109.072 601.794 108.752C601.474 108.411 601.005 108.112 600.386 107.856C599.789 107.6 599.053 107.323 598.178 107.024C596.557 106.491 595.373 105.872 594.626 105.168C593.879 104.443 593.506 103.547 593.506 102.48C593.506 101.477 593.773 100.656 594.306 100.016C594.839 99.3547 595.543 98.864 596.418 98.544C597.293 98.224 598.263 98.064 599.33 98.064C600.823 98.064 602.114 98.32 603.202 98.832C604.29 99.344 605.165 99.9307 605.826 100.592L604.45 102.096C603.81 101.541 603.042 101.051 602.146 100.624C601.271 100.197 600.247 99.984 599.074 99.984C598.071 99.984 597.282 100.187 596.706 100.592C596.13 100.976 595.842 101.509 595.842 102.192C595.842 102.917 596.173 103.483 596.834 103.888C597.495 104.293 598.445 104.709 599.682 105.136C600.642 105.456 601.495 105.808 602.242 106.192C602.989 106.576 603.565 107.045 603.97 107.6C604.397 108.155 604.61 108.848 604.61 109.68C604.61 110.789 604.311 111.696 603.714 112.4C603.138 113.083 602.349 113.584 601.346 113.904C600.365 114.224 599.266 114.384 598.05 114.384ZM616.885 114.384C615.264 114.384 613.963 113.883 612.981 112.88C612.021 111.856 611.541 110.373 611.541 108.432C611.541 107.024 611.755 105.701 612.181 104.464C612.629 103.227 613.248 102.128 614.037 101.168C614.827 100.208 615.733 99.4507 616.757 98.896C617.781 98.3413 618.891 98.064 620.085 98.064C621.195 98.064 622.155 98.2773 622.965 98.704C623.797 99.1307 624.427 99.696 624.853 100.4H624.981L625.589 98.448H627.573L624.469 114H622.453L622.709 111.632H622.581C621.771 112.464 620.864 113.136 619.861 113.648C618.88 114.139 617.888 114.384 616.885 114.384ZM617.621 112.336C618.475 112.336 619.36 112.08 620.277 111.568C621.216 111.056 622.112 110.309 622.965 109.328L624.405 102.416C623.872 101.584 623.253 100.997 622.549 100.656C621.845 100.293 621.131 100.112 620.405 100.112C619.531 100.112 618.699 100.336 617.909 100.784C617.141 101.211 616.469 101.797 615.893 102.544C615.317 103.269 614.869 104.112 614.549 105.072C614.229 106.032 614.069 107.024 614.069 108.048C614.069 109.499 614.389 110.576 615.029 111.28C615.691 111.984 616.555 112.336 617.621 112.336ZM637.321 114.384C635.721 114.384 634.43 113.883 633.449 112.88C632.489 111.856 632.009 110.373 632.009 108.432C632.009 107.024 632.222 105.701 632.649 104.464C633.097 103.227 633.716 102.128 634.505 101.168C635.294 100.208 636.201 99.4507 637.225 98.896C638.249 98.3413 639.358 98.064 640.553 98.064C641.662 98.064 642.612 98.2773 643.401 98.704C644.19 99.1093 644.809 99.6533 645.257 100.336H645.353L645.865 97.296L647.081 91.216H649.545L644.937 114H642.921L643.177 111.632H643.049C642.238 112.464 641.332 113.136 640.329 113.648C639.348 114.139 638.345 114.384 637.321 114.384ZM638.089 112.336C638.942 112.336 639.828 112.08 640.745 111.568C641.684 111.056 642.58 110.309 643.433 109.328L644.841 102.416C644.329 101.584 643.721 100.997 643.017 100.656C642.313 100.293 641.598 100.112 640.873 100.112C639.998 100.112 639.166 100.336 638.377 100.784C637.609 101.211 636.937 101.797 636.361 102.544C635.785 103.269 635.337 104.112 635.017 105.072C634.697 106.032 634.537 107.024 634.537 108.048C634.537 109.499 634.857 110.576 635.497 111.28C636.158 111.984 637.022 112.336 638.089 112.336ZM653.149 119.92L651.965 118.416C655.293 116.261 657.682 113.84 659.133 111.152C660.583 108.443 661.309 105.52 661.309 102.384C661.309 100.315 660.967 98.4267 660.285 96.72C659.623 94.992 658.589 93.4453 657.181 92.08L658.749 90.832C660.221 92.176 661.383 93.84 662.237 95.824C663.09 97.808 663.517 99.9733 663.517 102.32C663.517 106.139 662.599 109.541 660.765 112.528C658.93 115.515 656.391 117.979 653.149 119.92Z" fill="#1A1A1A"/>
<path d="M577.422 110.256C576.334 110.256 575.406 109.904 574.638 109.2C573.87 108.496 573.486 107.568 573.486 106.416C573.486 105.307 573.742 104.347 574.254 103.536C574.788 102.725 575.481 102.096 576.334 101.648C577.209 101.2 578.137 100.976 579.118 100.976C580.228 100.976 581.156 101.328 581.902 102.032C582.649 102.715 583.022 103.643 583.022 104.816C583.022 105.925 582.756 106.885 582.222 107.696C581.71 108.507 581.028 109.136 580.174 109.584C579.342 110.032 578.425 110.256 577.422 110.256Z" fill="#1A1A1A" fill-opacity="0.4"/>
<defs>
<clipPath id="clip0_852_13542">
<rect width="120" height="120" fill="white"/>
</clipPath>
</defs>
</svg>
